# xmcd
#
# Track frame offsets: 
#        150
#        3737
#        21522
#        26077
#        47331
#        66666
#        69473
#        87745
#        109708
#        125571
#        146935
#        166533
#        189557
#        205450
#        226500
#        247752
#        267814
#        286976
#        289366
#        310399
#        330086
#
# Disc length: 4445 seconds
#
# Revision: 6
# Processed by: cddbd v1.5.2PL0 Copyright (c) Steve Scherf et al.
# Submitted via: ExactAudioCopy v1.1
#
DISCID=35115b15
DTITLE=Snoop Doggy Dogg - Tha Doggfather
DYEAR=1996
DGENRE=Rap
TTITLE0=Intro
TTITLE1=Doggfather (feat. Charlie Wilson)
TTITLE2=Ride 4 Me
TTITLE3=Up Jump Tha Boogie (feat. Charlie Wilson and Teena Marie)
TTITLE4=Freestyle Conversation
TTITLE5=When I Grow Up
TTITLE6=Snoop Bounce (feat. Charlie Wilson)
TTITLE7=Gold Rush  (feat. Kurupt The King Pin and L.B.C. Crew)
TTITLE8=(Tear 'Em Off) Me and My Doggz
TTITLE9=You Thought (feat. Too Short and Priest "Soopafly" Brooks)
TTITLE10=Vapors (feat. Charlie Wilson and Teena Marie)
TTITLE11=Groupie (feat. Tha Dogg Pound, Nate Dogg, Warren G and Charlie 
TTITLE11=Wilson)
TTITLE12=2001 (feat. Bad Ass, Kurupt The King Pin and Threat)
TTITLE13=Sixx Minutes
TTITLE14=(O.J.) Wake Up (feat. Tray Deee)
TTITLE15=Snoop's Upside Ya Head (feat. Charlie Wilson)
TTITLE16=Blueberry (feat. Tha Dogg Pound and L.B.C. Crew)
TTITLE17=Traffic Jam
TTITLE18=Doggyland
TTITLE19=Downtown Assassins (feat. Dat Nigga Daz and Tray Deee)
TTITLE20=Outro
EXTD=YEAR: 1996
EXTT0=
EXTT1=
EXTT2=
EXTT3=
EXTT4=
EXTT5=
EXTT6=
EXTT7=
EXTT8=
EXTT9=
EXTT10=
EXTT11=
EXTT12=
EXTT13=
EXTT14=
EXTT15=
EXTT16=
EXTT17=
EXTT18=
EXTT19=
EXTT20=
PLAYORDER=
